<svg width="377" height="36" viewBox="0 0 377 36" fill="none" xmlns="http://www.w3.org/2000/svg">
<path d="M27.152 0.919998V35H23.84V19.064H3.632V35H0.272V0.919998H3.632V16.088H23.84V0.919998H27.152ZM58.6055 32.024V35H35.7095V0.919998H58.1735V3.896H39.0695V16.184H55.7255V19.016H39.0695V32.024H58.6055ZM64.9595 35V0.919998H68.3195V32.024H87.9995V35H64.9595ZM100.838 1.16H104.006L108.806 13.256L113.654 1.16H116.87L110.918 15.704L117.446 31.112L129.782 0.919998H133.43L118.982 35H116.006L108.854 18.152L101.654 35H98.726L84.326 0.919998H87.926L100.31 31.112L106.79 15.704L100.838 1.16ZM145.926 0.919998H148.758L162.918 35H159.366L154.95 24.344H139.638L135.27 35H131.67L145.926 0.919998ZM154.182 21.704L147.318 4.856L140.358 21.704H154.182ZM178.538 35V0.919998H200.906V3.896H181.898V16.424H197.93V19.208H181.898V35H178.538ZM214.41 0.919998H217.242L231.402 35H227.85L223.434 24.344H208.122L203.754 35H200.154L214.41 0.919998ZM222.666 21.704L215.802 4.856L208.842 21.704H222.666ZM255.739 7.304C254.779 6.248 253.499 5.384 251.899 4.712C250.299 4.008 248.475 3.656 246.427 3.656C243.419 3.656 241.227 4.232 239.851 5.384C238.475 6.504 237.787 8.04 237.787 9.992C237.787 11.336 238.123 12.392 238.795 13.16C239.467 13.928 240.491 14.568 241.867 15.08C243.275 15.56 245.067 16.04 247.243 16.52C249.675 17.032 251.771 17.64 253.531 18.344C255.291 19.048 256.651 20.008 257.611 21.224C258.571 22.408 259.051 24.024 259.051 26.072C259.051 28.152 258.523 29.88 257.467 31.256C256.411 32.632 254.955 33.656 253.099 34.328C251.243 34.968 249.131 35.288 246.763 35.288C241.451 35.288 236.891 33.64 233.083 30.344L234.763 27.608C235.979 28.888 237.643 29.992 239.755 30.92C241.899 31.848 244.267 32.312 246.859 32.312C249.547 32.312 251.659 31.816 253.195 30.824C254.731 29.832 255.499 28.36 255.499 26.408C255.499 25 255.115 23.88 254.347 23.048C253.579 22.184 252.427 21.48 250.891 20.936C249.355 20.392 247.467 19.864 245.227 19.352C242.859 18.808 240.859 18.2 239.227 17.528C237.627 16.856 236.411 15.976 235.579 14.888C234.747 13.8 234.331 12.328 234.331 10.472C234.331 8.36 234.843 6.584 235.867 5.144C236.923 3.672 238.363 2.568 240.187 1.832C242.011 1.064 244.107 0.679998 246.475 0.679998C248.715 0.679998 250.731 1.032 252.523 1.736C254.315 2.408 255.931 3.368 257.371 4.616L255.739 7.304ZM291.855 0.919998V35H288.543V19.064H268.335V35H264.975V0.919998H268.335V16.088H288.543V0.919998H291.855ZM300.413 35V0.919998H303.773V35H300.413ZM326.047 35.24C323.647 35.24 321.471 34.76 319.519 33.8C317.567 32.808 315.887 31.496 314.479 29.864C313.071 28.232 311.983 26.392 311.215 24.344C310.447 22.264 310.063 20.136 310.063 17.96C310.063 15.688 310.463 13.528 311.263 11.48C312.063 9.4 313.183 7.56 314.623 5.96C316.095 4.328 317.807 3.048 319.759 2.12C321.711 1.16 323.823 0.679998 326.095 0.679998C328.463 0.679998 330.623 1.176 332.575 2.168C334.527 3.16 336.207 4.488 337.615 6.152C339.055 7.816 340.143 9.672 340.879 11.72C341.647 13.768 342.031 15.864 342.031 18.008C342.031 20.28 341.631 22.456 340.831 24.536C340.031 26.584 338.911 28.424 337.471 30.056C336.031 31.656 334.335 32.92 332.383 33.848C330.431 34.776 328.319 35.24 326.047 35.24ZM313.423 17.96C313.423 19.816 313.727 21.592 314.335 23.288C314.943 24.984 315.807 26.504 316.927 27.848C318.047 29.192 319.375 30.264 320.911 31.064C322.479 31.832 324.191 32.216 326.047 32.216C327.999 32.216 329.743 31.816 331.279 31.016C332.847 30.184 334.175 29.08 335.263 27.704C336.383 26.328 337.231 24.808 337.807 23.144C338.383 21.448 338.671 19.72 338.671 17.96C338.671 16.104 338.367 14.328 337.759 12.632C337.151 10.936 336.271 9.416 335.119 8.072C333.999 6.728 332.671 5.672 331.135 4.904C329.599 4.136 327.903 3.752 326.047 3.752C324.127 3.752 322.383 4.152 320.815 4.952C319.279 5.752 317.951 6.84 316.831 8.216C315.743 9.56 314.895 11.08 314.287 12.776C313.711 14.472 313.423 16.2 313.423 17.96ZM351.726 7.112V35H348.366V0.919998H351.15L373.518 29.336V0.967998H376.878V35H373.758L351.726 7.112Z" fill="black"/>
</svg>
